<mxfile host="app.diagrams.net" agent="Mozilla/5.0 (Windows NT 10.0; Win64; x64) AppleWebKit/537.36 (KHTML, like Gecko) Chrome/131.0.0.0 Safari/537.36" version="24.9.0">
  <diagram name="Page-1" id="Bp2yQO_X4zNMc_IpkPKI">
    <mxGraphModel dx="1259" dy="686" grid="1" gridSize="10" guides="1" tooltips="1" connect="1" arrows="1" fold="1" page="1" pageScale="1" pageWidth="850" pageHeight="1100" math="0" shadow="0">
      <root>
        <mxCell id="0" />
        <mxCell id="1" parent="0" />
        <mxCell id="qW2KRY3QDl7wtGiWWUTm-1" value="" style="rounded=1;whiteSpace=wrap;html=1;fillColor=#dae8fc;strokeColor=#6c8ebf;" vertex="1" parent="1">
          <mxGeometry y="170" width="370" height="250" as="geometry" />
        </mxCell>
        <mxCell id="qW2KRY3QDl7wtGiWWUTm-2" value="&lt;b&gt;Jenkins&lt;/b&gt;" style="text;html=1;align=center;verticalAlign=middle;resizable=0;points=[];autosize=1;strokeColor=none;fillColor=none;" vertex="1" parent="1">
          <mxGeometry x="150" y="180" width="70" height="30" as="geometry" />
        </mxCell>
        <mxCell id="qW2KRY3QDl7wtGiWWUTm-5" style="edgeStyle=orthogonalEdgeStyle;rounded=0;orthogonalLoop=1;jettySize=auto;html=1;entryX=0.5;entryY=1;entryDx=0;entryDy=0;" edge="1" parent="1" source="qW2KRY3QDl7wtGiWWUTm-3" target="qW2KRY3QDl7wtGiWWUTm-4">
          <mxGeometry relative="1" as="geometry" />
        </mxCell>
        <mxCell id="qW2KRY3QDl7wtGiWWUTm-9" style="edgeStyle=orthogonalEdgeStyle;rounded=0;orthogonalLoop=1;jettySize=auto;html=1;" edge="1" parent="1" source="qW2KRY3QDl7wtGiWWUTm-3" target="qW2KRY3QDl7wtGiWWUTm-8">
          <mxGeometry relative="1" as="geometry" />
        </mxCell>
        <mxCell id="qW2KRY3QDl7wtGiWWUTm-3" value="&lt;b&gt;Sonar&lt;br&gt;Scanner&lt;/b&gt;" style="ellipse;whiteSpace=wrap;html=1;aspect=fixed;fillColor=#d5e8d4;strokeColor=#82b366;" vertex="1" parent="1">
          <mxGeometry x="240" y="280" width="110" height="110" as="geometry" />
        </mxCell>
        <mxCell id="qW2KRY3QDl7wtGiWWUTm-4" value="&lt;b&gt;Sonar Server&lt;/b&gt;" style="rounded=0;whiteSpace=wrap;html=1;fillColor=#f8cecc;strokeColor=#b85450;" vertex="1" parent="1">
          <mxGeometry x="530" y="80" width="190" height="110" as="geometry" />
        </mxCell>
        <mxCell id="qW2KRY3QDl7wtGiWWUTm-6" style="edgeStyle=orthogonalEdgeStyle;rounded=0;orthogonalLoop=1;jettySize=auto;html=1;entryX=0.705;entryY=0;entryDx=0;entryDy=0;entryPerimeter=0;" edge="1" parent="1" source="qW2KRY3QDl7wtGiWWUTm-4" target="qW2KRY3QDl7wtGiWWUTm-1">
          <mxGeometry relative="1" as="geometry" />
        </mxCell>
        <mxCell id="qW2KRY3QDl7wtGiWWUTm-7" value="&lt;b&gt;&lt;font face=&quot;Comic Sans MS&quot;&gt;1. Sonar Scanner analyse the code&lt;/font&gt;&lt;/b&gt;&lt;div&gt;&lt;b&gt;&lt;font face=&quot;Comic Sans MS&quot;&gt;2. Sonar Server configuration should be there&lt;/font&gt;&lt;/b&gt;&lt;/div&gt;&lt;div&gt;&lt;b&gt;&lt;font face=&quot;Comic Sans MS&quot;&gt;3. scanner reads the config and upload the results&lt;/font&gt;&lt;/b&gt;&lt;/div&gt;" style="text;html=1;align=center;verticalAlign=middle;resizable=0;points=[];autosize=1;strokeColor=none;fillColor=none;" vertex="1" parent="1">
          <mxGeometry x="370" y="374" width="320" height="60" as="geometry" />
        </mxCell>
        <mxCell id="qW2KRY3QDl7wtGiWWUTm-8" value="" style="sketch=0;outlineConnect=0;fontColor=#232F3E;gradientColor=none;fillColor=#232F3D;strokeColor=none;dashed=0;verticalLabelPosition=bottom;verticalAlign=top;align=center;html=1;fontSize=12;fontStyle=0;aspect=fixed;pointerEvents=1;shape=mxgraph.aws4.source_code;" vertex="1" parent="1">
          <mxGeometry x="110" y="296" width="57" height="78" as="geometry" />
        </mxCell>
        <mxCell id="qW2KRY3QDl7wtGiWWUTm-10" value="&lt;b&gt;Quality gate&lt;/b&gt;" style="text;html=1;align=center;verticalAlign=middle;resizable=0;points=[];autosize=1;strokeColor=none;fillColor=none;" vertex="1" parent="1">
          <mxGeometry x="350" y="100" width="90" height="30" as="geometry" />
        </mxCell>
      </root>
    </mxGraphModel>
  </diagram>
</mxfile>
